<svg width="64" height="64" viewBox="0 0 64 64" fill="none" xmlns="http://www.w3.org/2000/svg">
<path d="M52.1356 4.19492C52.9821 4.19541 53.6691 4.88186 53.6691 5.72846V46.9046C53.6691 47.7512 52.9821 48.4376 52.1356 48.4381C51.9797 48.4381 51.829 48.4145 51.6873 48.3712H51.1402C49.7669 50.9127 49.7676 53.9798 51.1412 56.5212H52.1356C52.982 56.5217 53.669 57.2082 53.6691 58.0547C53.6689 58.9012 52.982 59.5878 52.1356 59.5883H16.6354C12.6915 59.5883 9.49323 56.3905 9.49281 52.4467V11.3375C9.49287 7.39344 12.6913 4.19492 16.6354 4.19492H52.1356ZM16.6354 48.3712C14.3852 48.3712 12.5599 50.1965 12.5599 52.4467C12.5603 54.6966 14.3854 56.5212 16.6354 56.5212H47.7796C46.7982 53.8953 46.7984 50.9972 47.7796 48.3712H16.6354ZM16.6354 7.26201C14.3852 7.26201 12.56 9.08735 12.5599 11.3375V46.5821C13.7159 45.7772 15.1203 45.3041 16.6354 45.3041H50.2476C50.2606 45.3039 50.2736 45.304 50.2865 45.3041H50.602V7.26201H40.5771V25.6646C40.5771 26.2301 40.266 26.7505 39.7674 27.0174C39.2687 27.2841 38.6634 27.2542 38.1929 26.9405L31.5735 22.5236L24.9561 26.9405C24.4856 27.2545 23.8794 27.2842 23.3806 27.0174C22.8819 26.7506 22.5709 26.2302 22.5709 25.6646V7.26201H16.6354ZM25.638 22.7972L30.7228 19.4046C31.2381 19.061 31.9099 19.061 32.4251 19.4046L37.51 22.7972V7.26201H25.638V22.7972Z" fill="#002FE6"/>
</svg>
