<svg width="64" height="64" viewBox="0 0 64 64" fill="none" xmlns="http://www.w3.org/2000/svg">
<path d="M39.0703 7.32826H39.0693L49.5965 18.3856V18.3846L52.6636 21.6064V30.1597H52.7085V54.5198C52.7085 57.6253 50.191 60.1428 47.0855 60.1428H16.5863C13.4809 60.1427 10.9633 57.6252 10.9633 54.5198V9.88417C10.9635 6.77894 13.4811 4.2614 16.5863 4.26117H36.15L39.0703 7.32826ZM16.5863 7.32826C15.175 7.32849 14.0306 8.47285 14.0304 9.88417V54.5198C14.0304 55.9313 15.1748 57.0756 16.5863 57.0757H47.0855C48.4971 57.0757 49.6414 55.9314 49.6414 54.5198V32.2025H49.5965V22.0547H40.8785C38.0554 22.0547 35.7668 19.7659 35.7666 16.9429V7.32826H16.5863ZM27.9382 39.2502L29.1742 40.1567L23.018 48.5523C22.7564 48.9088 22.3534 49.1354 21.9128 49.1733C21.4723 49.211 21.0362 49.0567 20.7177 48.75L16.9408 45.1118L18.0041 44.0076L19.0674 42.9023L21.5813 45.3235L26.7011 38.3436L27.9382 39.2502ZM43.7608 47.3103H30.9813V44.2432H43.7608V47.3103ZM27.9382 25.9595L29.1742 26.866L23.018 35.2616C22.7564 35.6181 22.3534 35.8447 21.9128 35.8826C21.4723 35.9203 21.0362 35.7659 20.7177 35.4593L16.9408 31.8211L18.0041 30.7168L19.0674 29.6116L21.5813 32.0327L26.7011 25.0529L27.9382 25.9595ZM43.7608 34.5307H30.9813V31.4636H43.7608V34.5307Z" fill="#002FE6"/>
</svg>
