<svg width="64" height="64" viewBox="0 0 64 64" fill="none" xmlns="http://www.w3.org/2000/svg">
<path d="M41.4427 13.0023C41.9491 13.0023 42.45 13.0269 42.9443 13.0732L39.9491 16.0694H21.251C14.6946 16.0696 9.37919 21.3851 9.379 27.9414C9.37932 34.4977 14.6947 39.8133 21.251 39.8134H33.3337V49.5578L46.5984 43.7082C51.1132 41.7172 54.0662 37.3115 54.2143 32.4023L57.2893 29.3282V32.0159C57.289 38.2945 53.5812 43.9812 47.8365 46.5147L32.4191 53.3138L30.2666 54.2633V42.8805H21.251C13.0008 42.8804 6.31223 36.1916 6.3119 27.9414C6.3121 19.6911 13.0007 13.0025 21.251 13.0023H41.4427ZM23.8738 25.0051C25.6442 25.0051 27.0797 26.4406 27.0797 28.211C27.0795 29.9813 25.6442 31.4169 23.8738 31.4169C22.1035 31.4168 20.6681 29.9813 20.6679 28.211C20.6679 26.4406 22.1035 25.0052 23.8738 25.0051ZM38.9327 25.0051C40.7031 25.0052 42.1386 26.4406 42.1386 28.211C42.1385 29.9813 40.703 31.4168 38.9327 31.4169C37.1624 31.4169 35.727 29.9813 35.7268 28.211C35.7268 26.4406 37.1623 25.0051 38.9327 25.0051ZM50.7308 10.4125C51.098 9.62587 52.2167 9.62584 52.5839 10.4125L54.9002 15.3755C55.0017 15.5929 55.176 15.7682 55.3934 15.8697L60.3564 18.186C61.1431 18.5532 61.1431 19.6709 60.3564 20.0381L55.3934 22.3544C55.176 22.4559 55.0017 22.6312 54.9002 22.8486L52.5839 27.8116C52.2168 28.5983 51.098 28.5982 50.7308 27.8116L48.4145 22.8486C48.313 22.631 48.1379 22.4559 47.9203 22.3544L42.9573 20.0381C42.1712 19.6708 42.1712 18.5533 42.9573 18.186L47.9203 15.8697C48.1379 15.7682 48.313 15.5931 48.4145 15.3755L50.7308 10.4125Z" fill="#002FE6"/>
</svg>
